<svg xmlns="http://www.w3.org/2000/svg" version="1.1" xmlns:xlink="http://www.w3.org/1999/xlink" xmlns:svgjs="http://svgjs.com/svgjs" width="1540" height="800" preserveAspectRatio="none" viewBox="0 0 1540 800"><g mask="url(&quot;#SvgjsMask1000&quot;)" fill="none"><rect width="1540" height="800" x="0" y="0" fill="rgba(255, 255, 255, 1)"></rect><path d="M-100.96 -5.7 a95.26 95.26 0 1 0 190.52 0 a95.26 95.26 0 1 0 -190.52 0z" fill="rgba(121, 218, 203, 0.48)" class="triangle-float2"></path><path d="M-130.12 23.46 a153.58 153.58 0 1 0 307.16 0 a153.58 153.58 0 1 0 -307.16 0z" fill="rgba(121, 218, 203, 0.48)" class="triangle-float2"></path><path d="M-178.68 72.02 a250.7 250.7 0 1 0 501.4 0 a250.7 250.7 0 1 0 -501.4 0z" fill="rgba(121, 218, 203, 0.48)" class="triangle-float1"></path><path d="M1213.09 60.23 a227.14 227.14 0 1 0 454.28 0 a227.14 227.14 0 1 0 -454.28 0z" fill="rgba(121, 218, 203, 0.48)" class="triangle-float3"></path><path d="M1321.25 -47.92 a10.83 10.83 0 1 0 21.66 0 a10.83 10.83 0 1 0 -21.66 0z" fill="rgba(121, 218, 203, 0.48)" class="triangle-float3"></path><path d="M1287.76 -14.44 a77.8 77.8 0 1 0 155.6 0 a77.8 77.8 0 1 0 -155.6 0z" fill="rgba(121, 218, 203, 0.48)" class="triangle-float3"></path><path d="M-141.4 674.73 a176.13 176.13 0 1 0 352.26 0 a176.13 176.13 0 1 0 -352.26 0z" fill="rgba(121, 218, 203, 0.48)" class="triangle-float3"></path><path d="M-117.9 651.23 a129.13 129.13 0 1 0 258.26 0 a129.13 129.13 0 1 0 -258.26 0z" fill="rgba(121, 218, 203, 0.48)" class="triangle-float1"></path><path d="M-55.31 588.65 a3.96 3.96 0 1 0 7.92 0 a3.96 3.96 0 1 0 -7.92 0z" fill="rgba(121, 218, 203, 0.48)" class="triangle-float3"></path><path d="M1226.84 686.49 a199.65 199.65 0 1 0 399.3 0 a199.65 199.65 0 1 0 -399.3 0z" fill="rgba(121, 218, 203, 0.48)" class="triangle-float1"></path><path d="M1264.52 648.81 a124.29 124.29 0 1 0 248.58 0 a124.29 124.29 0 1 0 -248.58 0z" fill="rgba(121, 218, 203, 0.48)" class="triangle-float3"></path><path d="M1198.19 715.15 a256.96 256.96 0 1 0 513.92 0 a256.96 256.96 0 1 0 -513.92 0z" fill="rgba(121, 218, 203, 0.48)" class="triangle-float2"></path></g><defs><mask id="SvgjsMask1000"><rect width="1540" height="800" fill="#ffffff"></rect></mask><style>
            @keyframes float1 {
                0%{transform: translate(0, 0)}
                50%{transform: translate(-10px, 0)}
                100%{transform: translate(0, 0)}
            }

            .triangle-float1 {
                animation: float1 5s infinite;
            }

            @keyframes float2 {
                0%{transform: translate(0, 0)}
                50%{transform: translate(-5px, -5px)}
                100%{transform: translate(0, 0)}
            }

            .triangle-float2 {
                animation: float2 4s infinite;
            }

            @keyframes float3 {
                0%{transform: translate(0, 0)}
                50%{transform: translate(0, -10px)}
                100%{transform: translate(0, 0)}
            }

            .triangle-float3 {
                animation: float3 6s infinite;
            }
        </style></defs></svg>